<svg version="1.0" xmlns="http://www.w3.org/2000/svg"
 width="16" height="16" viewBox="0 0 200.000000 200.000000"
 preserveAspectRatio="xMidYMid meet">
<g transform="translate(0.000000,200.000000) scale(0.100000,-0.100000)"
fill="#FFFFFF" stroke="none">
<path d="M889 1729 c-140 -19 -319 -104 -344 -163 -17 -41 -9 -82 23 -106 36
-29 83 -25 141 10 109 67 270 96 394 70 148 -30 301 -145 371 -279 35 -67 66
-170 66 -223 0 -28 0 -28 -71 -28 -58 0 -70 -3 -66 -14 15 -39 230 -347 237
-340 13 15 230 343 230 349 0 3 -31 5 -70 5 l-69 0 -5 38 c-19 127 -39 201
-75 275 -139 287 -445 450 -762 406z"/>
<path d="M240 1196 c-61 -92 -114 -174 -117 -182 -4 -11 8 -14 64 -14 l69 0
12 -83 c21 -160 82 -292 188 -407 145 -156 323 -233 539 -234 129 0 203 17
322 74 107 50 133 76 133 130 0 87 -80 116 -169 62 -164 -101 -363 -108 -541
-19 -156 78 -289 280 -290 440 l0 37 70 0 c39 0 70 2 70 5 0 6 -217 334 -230
349 -5 4 -58 -67 -120 -158z"/>
</g>
</svg>